<svg width="512" height="512" viewBox="0 0 512 512" fill="none" xmlns="http://www.w3.org/2000/svg">
<path d="M233.963 5.89419C247.6 -1.96473 264.4 -1.96473 278.036 5.89419L458.596 109.956L333.745 182.933C314.419 163.565 287.673 151.578 258.124 151.578C227.394 151.578 199.696 164.543 180.221 185.292L52.3616 110.557L233.963 5.89419Z" fill="#22D3EE"/>
<path d="M155.884 227.441L28 152.692V361.643L155.408 287.172C152.792 277.936 151.392 268.192 151.392 258.122C151.392 247.456 152.962 237.157 155.884 227.441Z" fill="#22D3EE"/>
<path d="M179.076 329.711L54.3708 402.603L233.963 506.107C247.599 513.964 264.4 513.964 278.036 506.107L456.586 403.201L334.935 332.096C315.525 352.175 288.285 364.666 258.124 364.666C226.786 364.666 198.602 351.181 179.076 329.711Z" fill="#22D3EE"/>
<path d="M359.898 290.313L483.991 362.849C483.996 362.567 484 362.285 484 362.004V151.481L359.374 224.326C362.93 234.945 364.857 246.309 364.857 258.122C364.857 269.342 363.12 280.157 359.898 290.313Z" fill="#22D3EE"/>
</svg>
