<svg width="1567" height="512" viewBox="0 0 1567 512" fill="none" xmlns="http://www.w3.org/2000/svg">
<path d="M233.963 5.89419C247.6 -1.96473 264.4 -1.96473 278.036 5.89419L458.596 109.956L333.745 182.933C314.419 163.565 287.673 151.578 258.124 151.578C227.394 151.578 199.696 164.543 180.221 185.292L52.3616 110.557L233.963 5.89419Z" fill="#22D3EE"/>
<path d="M155.884 227.441L28 152.692V361.643L155.408 287.172C152.792 277.936 151.392 268.192 151.392 258.122C151.392 247.456 152.962 237.157 155.884 227.441Z" fill="#22D3EE"/>
<path d="M179.076 329.711L54.3708 402.603L233.963 506.107C247.599 513.964 264.4 513.964 278.036 506.107L456.586 403.201L334.935 332.096C315.525 352.175 288.285 364.666 258.124 364.666C226.786 364.666 198.602 351.181 179.076 329.711Z" fill="#22D3EE"/>
<path d="M359.898 290.313L483.991 362.849C483.996 362.567 484 362.285 484 362.004V151.481L359.374 224.326C362.93 234.945 364.857 246.309 364.857 258.122C364.857 269.342 363.12 280.157 359.898 290.313Z" fill="#22D3EE"/>
<path d="M545.336 320V191.436C565.25 184.602 585.36 181.186 605.664 181.186C611.912 181.186 617.867 181.479 623.529 182.064C629.19 182.455 635.438 183.431 642.271 184.993L637.879 206.371C631.631 204.614 626.067 203.54 621.186 203.15C616.5 202.564 611.326 202.271 605.664 202.271C593.755 202.271 581.65 203.931 569.35 207.25V320H545.336ZM736.279 180.893C754.631 180.893 768.786 186.652 778.743 198.171C788.7 209.495 793.679 226.774 793.679 250.007V258.5H696.45C697.426 272.557 702.014 283.295 710.214 290.714C718.61 297.938 730.324 301.55 745.357 301.55C753.948 301.55 761.269 300.867 767.321 299.5C773.374 298.133 777.962 296.669 781.086 295.107L784.307 315.607C781.379 317.169 776.107 318.829 768.493 320.586C760.879 322.343 752.288 323.221 742.721 323.221C731.007 323.221 720.66 321.464 711.679 317.95C702.893 314.24 695.571 309.262 689.714 303.014C683.857 296.767 679.464 289.348 676.536 280.757C673.607 271.971 672.143 262.502 672.143 252.35C672.143 240.245 673.998 229.702 677.707 220.721C681.417 211.74 686.298 204.321 692.35 198.464C698.402 192.607 705.236 188.214 712.85 185.286C720.464 182.357 728.274 180.893 736.279 180.893ZM769.079 238.879C769.079 227.36 766.052 218.281 760 211.643C753.948 204.81 745.943 201.393 735.986 201.393C730.324 201.393 725.15 202.467 720.464 204.614C715.974 206.762 712.069 209.593 708.75 213.107C705.431 216.621 702.795 220.624 700.843 225.114C698.89 229.605 697.621 234.193 697.036 238.879H769.079ZM881.536 302.721C887.588 302.721 892.957 302.526 897.643 302.136C902.524 301.745 906.526 301.257 909.65 300.671V260.257C906.526 259.281 902.719 258.5 898.229 257.914C893.933 257.329 889.345 257.036 884.464 257.036C879.974 257.036 875.581 257.426 871.286 258.207C866.99 258.793 863.183 259.964 859.864 261.721C856.545 263.479 853.812 265.821 851.664 268.75C849.517 271.483 848.443 274.998 848.443 279.293C848.443 288.079 851.371 294.229 857.229 297.743C863.281 301.062 871.383 302.721 881.536 302.721ZM879.193 180.893C889.345 180.893 897.838 182.162 904.671 184.7C911.7 187.238 917.362 190.752 921.657 195.243C925.952 199.733 928.979 205.2 930.736 211.643C932.493 218.086 933.371 225.114 933.371 232.729V317.657C927.71 318.633 920.193 319.805 910.821 321.171C901.645 322.538 892.176 323.221 882.414 323.221C874.995 323.221 867.771 322.538 860.743 321.171C853.714 320 847.467 317.852 842 314.729C836.533 311.41 832.14 306.919 828.821 301.257C825.502 295.595 823.843 288.371 823.843 279.586C823.843 271.776 825.502 265.236 828.821 259.964C832.336 254.498 836.729 250.105 842 246.786C847.467 243.467 853.617 241.124 860.45 239.757C867.479 238.195 874.507 237.414 881.536 237.414C891.102 237.414 900.474 238.488 909.65 240.636V233.9C909.65 229.8 909.162 225.895 908.186 222.186C907.405 218.281 905.745 214.767 903.207 211.643C900.864 208.519 897.545 206.079 893.25 204.321C889.15 202.369 883.781 201.393 877.143 201.393C868.748 201.393 861.426 201.979 855.179 203.15C848.931 204.321 844.148 205.493 840.829 206.664L837.9 186.75C841.219 185.188 846.686 183.821 854.3 182.65C862.11 181.479 870.407 180.893 879.193 180.893ZM1054.61 212.814C1051.88 210.276 1047.88 207.933 1042.61 205.786C1037.34 203.443 1031.87 202.271 1026.21 202.271C1019.76 202.271 1014.2 203.54 1009.51 206.079C1005.02 208.617 1001.31 212.131 998.386 216.621C995.457 220.917 993.31 226.188 991.943 232.436C990.576 238.488 989.893 245.029 989.893 252.057C989.893 267.871 993.602 280.074 1001.02 288.664C1008.44 297.255 1018.1 301.55 1030.01 301.55C1036.07 301.55 1041.14 301.257 1045.24 300.671C1049.54 300.086 1052.66 299.5 1054.61 298.914V212.814ZM1054.61 121.15L1078.92 117.05V316.193C1073.65 317.755 1066.91 319.317 1058.71 320.879C1050.51 322.44 1040.95 323.221 1030.01 323.221C1020.25 323.221 1011.37 321.562 1003.36 318.243C995.36 314.924 988.526 310.238 982.864 304.186C977.202 297.938 972.81 290.421 969.686 281.636C966.562 272.85 965 262.99 965 252.057C965 241.514 966.269 231.948 968.807 223.357C971.54 214.571 975.445 207.055 980.521 200.807C985.598 194.56 991.65 189.679 998.679 186.164C1005.9 182.65 1014.1 180.893 1023.28 180.893C1030.5 180.893 1036.85 181.771 1042.31 183.529C1047.78 185.286 1051.88 187.14 1054.61 189.093V121.15ZM1194.6 301.257C1194.6 307.114 1192.65 312.288 1188.74 316.779C1184.84 321.269 1179.66 323.514 1173.22 323.514C1166.58 323.514 1161.31 321.269 1157.41 316.779C1153.5 312.288 1151.55 307.114 1151.55 301.257C1151.55 295.205 1153.5 289.933 1157.41 285.443C1161.31 280.952 1166.58 278.707 1173.22 278.707C1179.66 278.707 1184.84 280.952 1188.74 285.443C1192.65 289.933 1194.6 295.205 1194.6 301.257ZM1258.15 187.921C1269.86 183.431 1280.9 181.186 1291.24 181.186C1296.9 181.186 1302.18 182.064 1307.06 183.821C1312.13 185.383 1316.43 187.921 1319.94 191.436C1328.34 184.602 1337.32 181.186 1346.89 181.186C1351.57 181.186 1355.96 182.064 1360.06 183.821C1364.36 185.579 1368.07 188.214 1371.19 191.729C1374.51 195.243 1377.15 199.636 1379.1 204.907C1381.05 210.179 1382.03 216.329 1382.03 223.357V320H1360.06V222.771C1360.06 215.743 1358.5 210.374 1355.38 206.664C1352.25 202.955 1348.35 201.1 1343.66 201.1C1341.32 201.1 1338.88 201.686 1336.34 202.857C1333.8 204.029 1331.46 205.883 1329.31 208.421C1330.49 212.912 1331.07 217.89 1331.07 223.357V267.579H1309.11V223.064C1309.11 216.231 1308.03 210.862 1305.89 206.957C1303.74 203.052 1299.54 201.1 1293.29 201.1C1289.39 201.1 1285 201.979 1280.11 203.736V320H1258.15V187.921ZM1468.42 180.893C1486.77 180.893 1500.93 186.652 1510.89 198.171C1520.84 209.495 1525.82 226.774 1525.82 250.007V258.5H1428.59C1429.57 272.557 1434.16 283.295 1442.36 290.714C1450.75 297.938 1462.47 301.55 1477.5 301.55C1486.09 301.55 1493.41 300.867 1499.46 299.5C1505.52 298.133 1510.1 296.669 1513.23 295.107L1516.45 315.607C1513.52 317.169 1508.25 318.829 1500.64 320.586C1493.02 322.343 1484.43 323.221 1474.86 323.221C1463.15 323.221 1452.8 321.464 1443.82 317.95C1435.04 314.24 1427.71 309.262 1421.86 303.014C1416 296.767 1411.61 289.348 1408.68 280.757C1405.75 271.971 1404.29 262.502 1404.29 252.35C1404.29 240.245 1406.14 229.702 1409.85 220.721C1413.56 211.74 1418.44 204.321 1424.49 198.464C1430.55 192.607 1437.38 188.214 1444.99 185.286C1452.61 182.357 1460.42 180.893 1468.42 180.893ZM1501.22 238.879C1501.22 227.36 1498.2 218.281 1492.14 211.643C1486.09 204.81 1478.09 201.393 1468.13 201.393C1462.47 201.393 1457.29 202.467 1452.61 204.614C1448.12 206.762 1444.21 209.593 1440.89 213.107C1437.57 216.621 1434.94 220.624 1432.99 225.114C1431.03 229.605 1429.76 234.193 1429.18 238.879H1501.22Z" fill="#22D3EE"/>
</svg>
