<svg width="1567" height="512" viewBox="0 0 1567 512" fill="none" xmlns="http://www.w3.org/2000/svg">
<g clip-path="url(#clip0_6_3)">
<path d="M233.963 5.89419C247.6 -1.96473 264.4 -1.96473 278.036 5.89419L458.596 109.956L333.745 182.933C314.419 163.565 287.673 151.578 258.124 151.578C227.394 151.578 199.696 164.543 180.221 185.292L52.3616 110.557L233.963 5.89419Z" fill="url(#paint0_linear_6_3)"/>
<path d="M155.884 227.441L28 152.692V361.643L155.408 287.172C152.792 277.936 151.392 268.192 151.392 258.122C151.392 247.456 152.962 237.157 155.884 227.441Z" fill="url(#paint1_linear_6_3)"/>
<path d="M179.076 329.711L54.3708 402.603L233.963 506.107C247.599 513.964 264.4 513.964 278.036 506.107L456.586 403.201L334.935 332.096C315.525 352.175 288.285 364.666 258.124 364.666C226.786 364.666 198.602 351.181 179.076 329.711Z" fill="url(#paint2_linear_6_3)"/>
<path d="M359.898 290.313L483.991 362.849C483.996 362.567 484 362.285 484 362.004V151.481L359.374 224.326C362.93 234.945 364.856 246.309 364.856 258.122C364.856 269.342 363.12 280.157 359.898 290.313Z" fill="url(#paint3_linear_6_3)"/>
<path d="M515.336 353V224.436C535.25 217.602 555.36 214.186 575.664 214.186C581.912 214.186 587.867 214.479 593.529 215.064C599.19 215.455 605.438 216.431 612.271 217.993L607.879 239.371C601.631 237.614 596.067 236.54 591.186 236.15C586.5 235.564 581.326 235.271 575.664 235.271C563.755 235.271 551.65 236.931 539.35 240.25V353H515.336ZM706.279 213.893C724.631 213.893 738.786 219.652 748.743 231.171C758.7 242.495 763.679 259.774 763.679 283.007V291.5H666.45C667.426 305.557 672.014 316.295 680.214 323.714C688.61 330.938 700.324 334.55 715.357 334.55C723.948 334.55 731.269 333.867 737.321 332.5C743.374 331.133 747.962 329.669 751.086 328.107L754.307 348.607C751.379 350.169 746.107 351.829 738.493 353.586C730.879 355.343 722.288 356.221 712.721 356.221C701.007 356.221 690.66 354.464 681.679 350.95C672.893 347.24 665.571 342.262 659.714 336.014C653.857 329.767 649.464 322.348 646.536 313.757C643.607 304.971 642.143 295.502 642.143 285.35C642.143 273.245 643.998 262.702 647.707 253.721C651.417 244.74 656.298 237.321 662.35 231.464C668.402 225.607 675.236 221.214 682.85 218.286C690.464 215.357 698.274 213.893 706.279 213.893ZM739.079 271.879C739.079 260.36 736.052 251.281 730 244.643C723.948 237.81 715.943 234.393 705.986 234.393C700.324 234.393 695.15 235.467 690.464 237.614C685.974 239.762 682.069 242.593 678.75 246.107C675.431 249.621 672.795 253.624 670.843 258.114C668.89 262.605 667.621 267.193 667.036 271.879H739.079ZM851.536 335.721C857.588 335.721 862.957 335.526 867.643 335.136C872.524 334.745 876.526 334.257 879.65 333.671V293.257C876.526 292.281 872.719 291.5 868.229 290.914C863.933 290.329 859.345 290.036 854.464 290.036C849.974 290.036 845.581 290.426 841.286 291.207C836.99 291.793 833.183 292.964 829.864 294.721C826.545 296.479 823.812 298.821 821.664 301.75C819.517 304.483 818.443 307.998 818.443 312.293C818.443 321.079 821.371 327.229 827.229 330.743C833.281 334.062 841.383 335.721 851.536 335.721ZM849.193 213.893C859.345 213.893 867.838 215.162 874.671 217.7C881.7 220.238 887.362 223.752 891.657 228.243C895.952 232.733 898.979 238.2 900.736 244.643C902.493 251.086 903.371 258.114 903.371 265.729V350.657C897.71 351.633 890.193 352.805 880.821 354.171C871.645 355.538 862.176 356.221 852.414 356.221C844.995 356.221 837.771 355.538 830.743 354.171C823.714 353 817.467 350.852 812 347.729C806.533 344.41 802.14 339.919 798.821 334.257C795.502 328.595 793.843 321.371 793.843 312.586C793.843 304.776 795.502 298.236 798.821 292.964C802.336 287.498 806.729 283.105 812 279.786C817.467 276.467 823.617 274.124 830.45 272.757C837.479 271.195 844.507 270.414 851.536 270.414C861.102 270.414 870.474 271.488 879.65 273.636V266.9C879.65 262.8 879.162 258.895 878.186 255.186C877.405 251.281 875.745 247.767 873.207 244.643C870.864 241.519 867.545 239.079 863.25 237.321C859.15 235.369 853.781 234.393 847.143 234.393C838.748 234.393 831.426 234.979 825.179 236.15C818.931 237.321 814.148 238.493 810.829 239.664L807.9 219.75C811.219 218.188 816.686 216.821 824.3 215.65C832.11 214.479 840.407 213.893 849.193 213.893ZM1024.61 245.814C1021.88 243.276 1017.88 240.933 1012.61 238.786C1007.34 236.443 1001.87 235.271 996.207 235.271C989.764 235.271 984.2 236.54 979.514 239.079C975.024 241.617 971.314 245.131 968.386 249.621C965.457 253.917 963.31 259.188 961.943 265.436C960.576 271.488 959.893 278.029 959.893 285.057C959.893 300.871 963.602 313.074 971.021 321.664C978.44 330.255 988.105 334.55 1000.01 334.55C1006.07 334.55 1011.14 334.257 1015.24 333.671C1019.54 333.086 1022.66 332.5 1024.61 331.914V245.814ZM1024.61 154.15L1048.92 150.05V349.193C1043.65 350.755 1036.91 352.317 1028.71 353.879C1020.51 355.44 1010.95 356.221 1000.01 356.221C990.252 356.221 981.369 354.562 973.364 351.243C965.36 347.924 958.526 343.238 952.864 337.186C947.202 330.938 942.81 323.421 939.686 314.636C936.562 305.85 935 295.99 935 285.057C935 274.514 936.269 264.948 938.807 256.357C941.54 247.571 945.445 240.055 950.521 233.807C955.598 227.56 961.65 222.679 968.679 219.164C975.902 215.65 984.102 213.893 993.279 213.893C1000.5 213.893 1006.85 214.771 1012.31 216.529C1017.78 218.286 1021.88 220.14 1024.61 222.093V154.15ZM1164.6 334.257C1164.6 340.114 1162.65 345.288 1158.74 349.779C1154.84 354.269 1149.66 356.514 1143.22 356.514C1136.58 356.514 1131.31 354.269 1127.41 349.779C1123.5 345.288 1121.55 340.114 1121.55 334.257C1121.55 328.205 1123.5 322.933 1127.41 318.443C1131.31 313.952 1136.58 311.707 1143.22 311.707C1149.66 311.707 1154.84 313.952 1158.74 318.443C1162.65 322.933 1164.6 328.205 1164.6 334.257ZM1228.15 220.921C1239.86 216.431 1250.9 214.186 1261.24 214.186C1266.9 214.186 1272.18 215.064 1277.06 216.821C1282.13 218.383 1286.43 220.921 1289.94 224.436C1298.34 217.602 1307.32 214.186 1316.89 214.186C1321.57 214.186 1325.96 215.064 1330.06 216.821C1334.36 218.579 1338.07 221.214 1341.19 224.729C1344.51 228.243 1347.15 232.636 1349.1 237.907C1351.05 243.179 1352.03 249.329 1352.03 256.357V353H1330.06V255.771C1330.06 248.743 1328.5 243.374 1325.38 239.664C1322.25 235.955 1318.35 234.1 1313.66 234.1C1311.32 234.1 1308.88 234.686 1306.34 235.857C1303.8 237.029 1301.46 238.883 1299.31 241.421C1300.49 245.912 1301.07 250.89 1301.07 256.357V300.579H1279.11V256.064C1279.11 249.231 1278.03 243.862 1275.89 239.957C1273.74 236.052 1269.54 234.1 1263.29 234.1C1259.39 234.1 1255 234.979 1250.11 236.736V353H1228.15V220.921ZM1438.42 213.893C1456.77 213.893 1470.93 219.652 1480.89 231.171C1490.84 242.495 1495.82 259.774 1495.82 283.007V291.5H1398.59C1399.57 305.557 1404.16 316.295 1412.36 323.714C1420.75 330.938 1432.47 334.55 1447.5 334.55C1456.09 334.55 1463.41 333.867 1469.46 332.5C1475.52 331.133 1480.1 329.669 1483.23 328.107L1486.45 348.607C1483.52 350.169 1478.25 351.829 1470.64 353.586C1463.02 355.343 1454.43 356.221 1444.86 356.221C1433.15 356.221 1422.8 354.464 1413.82 350.95C1405.04 347.24 1397.71 342.262 1391.86 336.014C1386 329.767 1381.61 322.348 1378.68 313.757C1375.75 304.971 1374.29 295.502 1374.29 285.35C1374.29 273.245 1376.14 262.702 1379.85 253.721C1383.56 244.74 1388.44 237.321 1394.49 231.464C1400.55 225.607 1407.38 221.214 1414.99 218.286C1422.61 215.357 1430.42 213.893 1438.42 213.893ZM1471.22 271.879C1471.22 260.36 1468.2 251.281 1462.14 244.643C1456.09 237.81 1448.09 234.393 1438.13 234.393C1432.47 234.393 1427.29 235.467 1422.61 237.614C1418.12 239.762 1414.21 242.593 1410.89 246.107C1407.57 249.621 1404.94 253.624 1402.99 258.114C1401.03 262.605 1399.76 267.193 1399.18 271.879H1471.22Z" fill="url(#paint4_linear_6_3)"/>
</g>
<defs>
<linearGradient id="paint0_linear_6_3" x1="147.5" y1="43" x2="356" y2="463.5" gradientUnits="userSpaceOnUse">
<stop stop-color="#22D3EE"/>
<stop offset="0.760417" stop-color="#67E8F9"/>
<stop offset="0.953125" stop-color="#A5F3FC"/>
</linearGradient>
<linearGradient id="paint1_linear_6_3" x1="147.5" y1="43" x2="356" y2="463.5" gradientUnits="userSpaceOnUse">
<stop stop-color="#22D3EE"/>
<stop offset="0.760417" stop-color="#67E8F9"/>
<stop offset="0.953125" stop-color="#A5F3FC"/>
</linearGradient>
<linearGradient id="paint2_linear_6_3" x1="147.5" y1="43" x2="356" y2="463.5" gradientUnits="userSpaceOnUse">
<stop stop-color="#22D3EE"/>
<stop offset="0.760417" stop-color="#67E8F9"/>
<stop offset="0.953125" stop-color="#A5F3FC"/>
</linearGradient>
<linearGradient id="paint3_linear_6_3" x1="147.5" y1="43" x2="356" y2="463.5" gradientUnits="userSpaceOnUse">
<stop stop-color="#22D3EE"/>
<stop offset="0.760417" stop-color="#67E8F9"/>
<stop offset="0.953125" stop-color="#A5F3FC"/>
</linearGradient>
<linearGradient id="paint4_linear_6_3" x1="752.613" y1="134.607" x2="789.865" y2="429.705" gradientUnits="userSpaceOnUse">
<stop stop-color="#22D3EE"/>
<stop offset="0.760417" stop-color="#67E8F9"/>
<stop offset="0.953125" stop-color="#A5F3FC"/>
</linearGradient>
<clipPath id="clip0_6_3">
<rect width="1567" height="512" fill="white"/>
</clipPath>
</defs>
</svg>
